<?xml version="1.0" encoding="iso-8859-1"?>
<!-- Generator: Adobe Illustrator 19.0.0, SVG Export Plug-In . SVG Version: 6.00 Build 0)  -->
<svg version="1.1" id="Capa_1" xmlns="http://www.w3.org/2000/svg" xmlns:xlink="http://www.w3.org/1999/xlink" x="0px" y="0px"
	 viewBox="0 0 485 485" style="enable-background:new 0 0 485 485;" xml:space="preserve">
<g>
	<path d="M429.381,370.91l-99.483-211.387V0H155.103v159.523L55.62,370.908c-5.039,10.704-7.594,22.161-7.594,34.053
		c0,44.134,35.905,80.039,80.039,80.039h228.871c44.134,0,80.039-35.905,80.039-80.039
		C436.975,393.068,434.419,381.611,429.381,370.91z M185.103,166.229V30h114.795v136.229l63.857,135.688h-242.51L185.103,166.229z
		 M356.936,455H128.064c-27.592,0-50.039-22.447-50.039-50.039c0-7.44,1.594-14.598,4.738-21.276l24.363-51.768h270.747
		l24.364,51.77c3.144,6.676,4.737,13.833,4.737,21.274C406.975,432.553,384.527,455,356.936,455z"/>
</g>
<g>
</g>
<g>
</g>
<g>
</g>
<g>
</g>
<g>
</g>
<g>
</g>
<g>
</g>
<g>
</g>
<g>
</g>
<g>
</g>
<g>
</g>
<g>
</g>
<g>
</g>
<g>
</g>
<g>
</g>
</svg>
