<svg version="1.1" xmlns="http://www.w3.org/2000/svg" xmlns:xlink="http://www.w3.org/1999/xlink" style="" xml:space="preserve" width="485" height="485"><rect id="backgroundrect" width="100%" height="100%" x="0" y="0" fill="none" stroke="none"/>
















<g class="currentLayer" style=""><title>Layer 1</title><g id="svg_1" class="selected" fill="#ffffff" fill-opacity="1">
	<path d="M429.381,370.91l-99.483-211.387V0H155.103v159.523L55.62,370.908c-5.039,10.704-7.594,22.161-7.594,34.053   c0,44.134,35.905,80.039,80.039,80.039h228.871c44.134,0,80.039-35.905,80.039-80.039   C436.975,393.068,434.419,381.611,429.381,370.91z M185.103,166.229V30h114.795v136.229l63.857,135.688h-242.51L185.103,166.229z    M356.936,455H128.064c-27.592,0-50.039-22.447-50.039-50.039c0-7.44,1.594-14.598,4.738-21.276l24.363-51.768h270.747   l24.364,51.77c3.144,6.676,4.737,13.833,4.737,21.274C406.975,432.553,384.527,455,356.936,455z" id="svg_2" fill="#ffffff" fill-opacity="1"/>
</g><g id="svg_3">
</g><g id="svg_4">
</g><g id="svg_5">
</g><g id="svg_6">
</g><g id="svg_7">
</g><g id="svg_8">
</g><g id="svg_9">
</g><g id="svg_10">
</g><g id="svg_11">
</g><g id="svg_12">
</g><g id="svg_13">
</g><g id="svg_14">
</g><g id="svg_15">
</g><g id="svg_16">
</g><g id="svg_17">
</g></g></svg>