<svg version="1.1" xmlns="http://www.w3.org/2000/svg" xmlns:xlink="http://www.w3.org/1999/xlink" style="" xml:space="preserve" width="487.36700439453125" height="487.36700439453125"><rect id="backgroundrect" width="100%" height="100%" x="0" y="0" fill="none" stroke="none"/>
















<g class="currentLayer" style=""><title>Layer 1</title><g id="svg_1" class="selected" fill="#ffffff" fill-opacity="1">
	<path d="M482.815,155.293c-4.724-7.889-10.419-15.338-16.927-22.139c-3.39-3.542-6.997-6.889-10.787-10.011   c6.947-26.182,7.122-53.762,0.434-80.413l-2.187-8.711l-8.711-2.186c-12.896-3.236-26.164-4.877-39.436-4.877   c-13.922,0-27.659,1.784-40.976,5.313c-3.123-3.792-6.47-7.399-10.013-10.789c-6.799-6.506-14.248-12.201-22.14-16.927L324.471,0   l-7.656,4.462c-8.786,5.12-17.104,11.58-24.724,19.198c-8.873,8.873-16.082,18.789-21.627,29.358L33.887,289.595   c-45.183,45.183-45.183,118.702,0,163.885c22.592,22.592,52.268,33.887,81.942,33.887c29.676,0,59.352-11.296,81.942-33.887   l236.484-236.484c10.719-5.634,20.646-12.914,29.452-21.721c7.617-7.618,14.076-15.936,19.197-24.724l4.462-7.656L482.815,155.293z    M57.814,429.554c-0.705-15.988,5.247-31.59,16.809-43.151l205.308-205.308c3.63,4.959,7.682,9.704,12.16,14.182   c4.452,4.452,9.193,8.51,14.174,12.169l-205.3,205.3C89.403,424.307,73.802,430.259,57.814,429.554z M55.1,310.808l201.507-201.507   c-0.021,15.077,2.75,30.155,8.299,44.391L53.409,365.189c-8.896,8.895-15.602,19.364-19.928,30.681   C24.908,366.677,32.113,333.795,55.1,310.808z M176.559,432.267c-22.994,22.994-55.888,30.196-85.087,21.612   c11.324-4.327,21.806-11.021,30.706-19.921L333.62,222.516c13.922,5.448,28.881,8.303,44.28,8.303c0.036,0,0.073-0.001,0.109-0.001   L176.559,432.267z M442.494,174.063c-17.254,17.254-40.194,26.756-64.595,26.756c-24.401,0-47.342-9.502-64.596-26.756   c-35.617-35.618-35.617-93.572,0-129.189c3.505-3.504,7.182-6.673,10.99-9.476c3.19,2.371,6.259,4.963,9.178,7.756   c4.725,4.521,8.99,9.552,12.679,14.954l6.43,9.417l10.794-3.676c13.431-4.574,27.503-6.893,41.827-6.893   c7.759,0,15.517,0.689,23.163,2.052c3.906,21.816,2.266,44.104-4.846,64.986l-3.676,10.794l9.417,6.43   c5.4,3.688,10.432,7.953,14.953,12.678c2.793,2.919,5.386,5.988,7.756,9.178C449.166,166.883,445.998,170.558,442.494,174.063z" id="svg_2" fill="#ffffff" fill-opacity="1"/>
</g><g id="svg_3">
</g><g id="svg_4">
</g><g id="svg_5">
</g><g id="svg_6">
</g><g id="svg_7">
</g><g id="svg_8">
</g><g id="svg_9">
</g><g id="svg_10">
</g><g id="svg_11">
</g><g id="svg_12">
</g><g id="svg_13">
</g><g id="svg_14">
</g><g id="svg_15">
</g><g id="svg_16">
</g><g id="svg_17">
</g></g></svg>