<?xml version="1.0" encoding="iso-8859-1"?>
<!-- Generator: Adobe Illustrator 19.0.0, SVG Export Plug-In . SVG Version: 6.00 Build 0)  -->
<svg version="1.1" id="Capa_1" xmlns="http://www.w3.org/2000/svg" xmlns:xlink="http://www.w3.org/1999/xlink" x="0px" y="0px"
	 viewBox="0 0 485 485" style="enable-background:new 0 0 485 485;" xml:space="preserve">
<g>
	<path d="M441.609,43.39C413.629,15.41,376.427,0,336.855,0s-76.773,15.41-104.754,43.39
		c-27.252,27.252-36.836,50.282-45.292,70.601c-6.817,16.382-12.705,30.53-27.494,45.319s-28.938,20.677-45.32,27.496
		c-20.32,8.457-43.351,18.042-70.604,45.295c-57.762,57.762-57.762,151.747,0,209.508C71.371,469.59,108.574,485,148.145,485
		s76.773-15.41,104.754-43.39c27.254-27.254,36.839-50.285,45.296-70.605c6.818-16.383,12.706-30.531,27.495-45.32
		c14.789-14.789,28.938-20.677,45.319-27.494c20.318-8.456,43.349-18.04,70.601-45.292
		C499.371,195.137,499.371,101.152,441.609,43.39z M412.202,97.055c-9.679,19.358-25.562,41.139-45.301,62.27
		c-6.015-7.426-12.545-14.685-19.543-21.683c-6.998-6.999-14.256-13.529-21.682-19.543c21.131-19.739,42.912-35.622,62.27-45.301
		c22.385-11.193,31.568-9.075,32.451-8.194C421.277,65.484,423.396,74.668,412.202,97.055z M261.394,379.859
		c-0.852,0.046-1.72,0.074-2.613,0.074c-13.889-0.001-32.635-5.642-52.998-17.334c16.198-17.507,26.406-30.965,35.653-43.158
		c7.754-10.225,15.19-20.022,25.494-31.3l27.526,27.526c-11.97,15.018-18.048,29.607-23.959,43.809
		C267.724,366.142,264.912,372.888,261.394,379.859z M158.855,326.145c-7.224-7.224-13.672-14.538-19.398-21.814
		c17.983-16.955,31.29-27.05,44.228-36.862c11.148-8.454,21.819-16.556,34.409-28.163l27.601,27.601
		c-11.606,12.59-19.708,23.261-28.162,34.408c-9.812,12.938-19.907,26.245-36.864,44.229
		C173.391,339.819,166.076,333.366,158.855,326.145z M223.605,105.146c14.115-0.775,33.944,4.789,55.623,17.242
		c-16.203,17.512-26.412,30.971-35.66,43.166c-7.755,10.226-15.192,20.024-25.498,31.304l-27.526-27.526
		c11.973-15.019,18.051-29.611,23.962-43.814C217.279,118.857,220.089,112.114,223.605,105.146z M239.306,218.093
		c11.608-12.591,19.711-23.263,28.165-34.412c9.811-12.937,19.905-26.242,36.859-44.224c7.276,5.726,14.59,12.174,21.814,19.398
		c7.223,7.223,13.67,14.538,19.397,21.816c-17.981,16.953-31.286,27.046-44.223,36.857c-11.148,8.454-21.82,16.557-34.412,28.165
		L239.306,218.093z M336.855,30c17.284,0,33.999,3.695,49.252,10.696c-27.189,10.907-58.265,33.678-85.29,59.632
		c-7.797-4.861-15.669-9.125-23.528-12.707c-12.174-5.547-23.882-9.267-34.852-11.147c3.214-3.85,6.807-7.8,10.877-11.87
		C275.629,42.289,305.298,30,336.855,30z M125.522,214.503c14.202-5.911,28.792-11.988,43.809-23.959l27.526,27.526
		c-11.278,10.304-21.075,17.74-31.301,25.495c-12.195,9.248-25.656,19.459-43.168,35.663c-12.454-21.681-18.017-41.51-17.243-55.625
		C112.115,220.086,118.86,217.276,125.522,214.503z M64.604,253.315c4.07-4.07,8.02-7.663,11.87-10.877
		c1.88,10.971,5.6,22.679,11.147,34.852c3.581,7.859,7.846,15.732,12.707,23.529c-25.932,27.002-48.686,58.049-59.603,85.222
		C20.82,342.445,28.775,289.143,64.604,253.315z M72.798,387.945c9.679-19.358,25.562-41.139,45.301-62.27
		c6.015,7.426,12.545,14.684,19.543,21.682c6.998,6.998,14.257,13.528,21.683,19.543c-21.131,19.74-42.912,35.622-62.27,45.301
		c-22.388,11.194-31.57,9.075-32.451,8.194C63.723,419.516,61.604,410.332,72.798,387.945z M148.145,455
		c-17.291,0-34.012-3.698-49.27-10.704c27.195-10.904,58.272-33.667,85.303-59.626c7.758,4.837,15.59,9.083,23.409,12.653
		c12.214,5.577,23.964,9.321,34.971,11.208c-3.213,3.849-6.804,7.797-10.873,11.866C209.371,442.711,179.702,455,148.145,455z
		 M359.482,270.493c-14.203,5.911-28.794,11.989-43.814,23.962l-27.526-27.526c11.28-10.306,21.077-17.742,31.303-25.497
		c12.193-9.246,25.651-19.454,43.159-35.654c12.45,21.68,18.017,41.513,17.246,55.619
		C372.884,264.912,366.142,267.722,359.482,270.493z M420.396,231.685c-4.07,4.07-8.019,7.662-11.869,10.875
		c-1.887-11.008-5.628-22.76-11.206-34.975c-3.569-7.818-7.814-15.648-12.65-23.404c25.932-27.002,48.685-58.048,59.603-85.221
		C464.18,142.555,456.225,195.857,420.396,231.685z"/>
</g>
<g>
</g>
<g>
</g>
<g>
</g>
<g>
</g>
<g>
</g>
<g>
</g>
<g>
</g>
<g>
</g>
<g>
</g>
<g>
</g>
<g>
</g>
<g>
</g>
<g>
</g>
<g>
</g>
<g>
</g>
</svg>
