<svg version="1.1" xmlns="http://www.w3.org/2000/svg" xmlns:xlink="http://www.w3.org/1999/xlink" style="enable-background:new 0 0 476.213 476.213;" xml:space="preserve" width="476.213" height="476.213"><rect id="backgroundrect" width="100%" height="100%" x="0" y="0" fill="none" stroke="none"/>
















<g class="currentLayer" style=""><title>Layer 1</title><g id="svg_1" class="selected" fill="#e84141" fill-opacity="1">
	<path d="M476.213,139.126L455,117.913l-34.119,34.119l-68.006-7.48l86.632-86.632l-21.213-21.213l-86.632,86.632l-7.481-68.006   L358.3,21.213L337.088,0L78.258,258.829l11.685,106.228L0,455l21.213,21.213l89.943-89.943l106.228,11.685L476.213,139.126z    M188.643,266.357l-7.48-68.007l44.319-44.319l7.48,68.007L188.643,266.357z M254.176,243.251l68.006,7.48l-44.32,44.32   l-68.006-7.48L254.176,243.251z M393.691,179.221l-44.319,44.319l-68.006-7.48l44.32-44.319L393.691,179.221z M304.472,150.528   l-44.32,44.32l-7.48-68.007l44.319-44.319L304.472,150.528z M109.652,269.861l44.32-44.32l7.48,68.007l-44.319,44.319   L109.652,269.861z M138.346,359.08l44.319-44.319l68.006,7.48l-44.32,44.319L138.346,359.08z" id="svg_2" fill="#e84141" fill-opacity="1"/>
</g><g id="svg_3">
</g><g id="svg_4">
</g><g id="svg_5">
</g><g id="svg_6">
</g><g id="svg_7">
</g><g id="svg_8">
</g><g id="svg_9">
</g><g id="svg_10">
</g><g id="svg_11">
</g><g id="svg_12">
</g><g id="svg_13">
</g><g id="svg_14">
</g><g id="svg_15">
</g><g id="svg_16">
</g><g id="svg_17">
</g></g></svg>