<?xml version="1.0" encoding="iso-8859-1"?>
<!-- Generator: Adobe Illustrator 19.0.0, SVG Export Plug-In . SVG Version: 6.00 Build 0)  -->
<svg version="1.1" id="Capa_1" xmlns="http://www.w3.org/2000/svg" xmlns:xlink="http://www.w3.org/1999/xlink" x="0px" y="0px"
	 viewBox="0 0 476.213 476.213" style="enable-background:new 0 0 476.213 476.213;" xml:space="preserve">
<g>
	<path d="M476.213,139.126L455,117.913l-34.119,34.119l-68.006-7.48l86.632-86.632l-21.213-21.213l-86.632,86.632l-7.481-68.006
		L358.3,21.213L337.088,0L78.258,258.829l11.685,106.228L0,455l21.213,21.213l89.943-89.943l106.228,11.685L476.213,139.126z
		 M188.643,266.357l-7.48-68.007l44.319-44.319l7.48,68.007L188.643,266.357z M254.176,243.251l68.006,7.48l-44.32,44.32
		l-68.006-7.48L254.176,243.251z M393.691,179.221l-44.319,44.319l-68.006-7.48l44.32-44.319L393.691,179.221z M304.472,150.528
		l-44.32,44.32l-7.48-68.007l44.319-44.319L304.472,150.528z M109.652,269.861l44.32-44.32l7.48,68.007l-44.319,44.319
		L109.652,269.861z M138.346,359.08l44.319-44.319l68.006,7.48l-44.32,44.319L138.346,359.08z"/>
</g>
<g>
</g>
<g>
</g>
<g>
</g>
<g>
</g>
<g>
</g>
<g>
</g>
<g>
</g>
<g>
</g>
<g>
</g>
<g>
</g>
<g>
</g>
<g>
</g>
<g>
</g>
<g>
</g>
<g>
</g>
</svg>
