<svg version="1.1" xmlns="http://www.w3.org/2000/svg" xmlns:xlink="http://www.w3.org/1999/xlink" style="" xml:space="preserve" width="484.9309997558594" height="484.9309997558594"><rect id="backgroundrect" width="100%" height="100%" x="0" y="0" fill="none" stroke="none"/>
















<g class="currentLayer" style=""><title>Layer 1</title><g id="svg_1" class="selected" fill="#ffffff" fill-opacity="1">
	<path d="M250.609,223.177l-8.143-5.264l-8.143,5.264c-61.086,39.487-93.375,88.375-93.375,141.378   c0,55.977,45.541,101.518,101.518,101.518s101.518-45.541,101.518-101.518C343.984,311.551,311.695,262.663,250.609,223.177z    M242.466,436.073c-39.435,0-71.518-32.083-71.518-71.518c0-49.518,37.16-86.823,71.518-110.724   c34.358,23.901,71.518,61.206,71.518,110.724C313.984,403.99,281.901,436.073,242.466,436.073z" id="svg_2" fill="#ffffff" fill-opacity="1"/>
	<path d="M471.351,69.632c-18.082-31.318-51.801-50.773-87.998-50.773c-17.726,0-35.25,4.708-50.678,13.615   c-45.902,26.502-72.096,78.908-75.749,151.554l-0.487,9.684l8.63,4.42c35.9,18.388,70.021,27.712,101.414,27.714   c0.005,0,0.005,0,0.01,0c24.765,0,47.545-5.901,67.701-17.538C482.67,180.32,499.339,118.11,471.351,69.632z M419.192,182.328   c-15.538,8.97-33.268,13.519-52.701,13.519c-0.002,0-0.005,0-0.008,0c-24.111-0.001-50.627-6.754-78.94-20.089   c3.519-41.707,17.244-92.542,60.131-117.302c10.874-6.278,23.211-9.596,35.678-9.596c25.514,0,49.277,13.708,62.018,35.773   C465.087,118.784,453.344,162.61,419.192,182.328z" id="svg_3" fill="#ffffff" fill-opacity="1"/>
	<path d="M228.494,193.712l-0.487-9.684c-3.653-72.646-29.847-125.052-75.749-151.554c-15.428-8.907-32.952-13.615-50.678-13.615   c-36.197,0-69.917,19.455-87.998,50.773C-14.408,118.11,2.262,180.32,50.739,208.308c20.156,11.637,42.937,17.538,67.709,17.538   c0.002,0-0.001,0,0.001,0c31.388,0,65.512-9.325,101.414-27.714L228.494,193.712z M118.449,195.846   c-19.438,0-37.172-4.548-52.709-13.519c-34.152-19.718-45.895-63.544-26.178-97.696c12.74-22.066,36.504-35.773,62.018-35.773   c12.467,0,24.805,3.318,35.678,9.596c42.887,24.76,56.612,75.596,60.131,117.302C169.073,189.094,142.556,195.846,118.449,195.846z   " id="svg_4" fill="#ffffff" fill-opacity="1"/>
</g><g id="svg_5">
</g><g id="svg_6">
</g><g id="svg_7">
</g><g id="svg_8">
</g><g id="svg_9">
</g><g id="svg_10">
</g><g id="svg_11">
</g><g id="svg_12">
</g><g id="svg_13">
</g><g id="svg_14">
</g><g id="svg_15">
</g><g id="svg_16">
</g><g id="svg_17">
</g><g id="svg_18">
</g><g id="svg_19">
</g></g></svg>