<svg version="1.1" xmlns="http://www.w3.org/2000/svg" xmlns:xlink="http://www.w3.org/1999/xlink" style="" xml:space="preserve" width="485" height="485"><rect id="backgroundrect" width="100%" height="100%" x="0" y="0" fill="none" stroke="none"/>
















<g class="currentLayer" style=""><title>Layer 1</title><g id="svg_1" class="selected" fill="#e84141" fill-opacity="1">
	<path d="M485,201.458c0-42.737-16.643-82.917-46.863-113.137l-41.458-41.458C366.459,16.643,326.28,0,283.542,0   s-82.917,16.643-113.137,46.863c-17.959,17.959-31.522,40.155-39.224,64.189c-5.975,18.645-8.461,38.469-7.363,58.075   C52.963,185.568,0,249.215,0,325c0,88.224,71.776,160,160,160h58.63c78.646,0,144.219-57.038,157.531-131.919   c23.237-7.839,44.506-21.015,61.976-38.487C468.357,284.375,485,244.195,485,201.458z M416.924,109.534   c6.016,6.016,11.365,12.52,16.019,19.418c-20.733-0.263-40.657-8.516-55.802-23.661c-14.767-14.767-23.054-34.444-23.6-54.882   c7.834,5.026,15.186,10.928,21.925,17.667L416.924,109.534z M160,195h58.63c8.562,0,16.93,0.841,25.034,2.428   c-14.844,14.46-34.759,22.702-56.164,22.702c-20.87,0-40.63-8.043-55.465-22.092C141.046,196.055,150.401,195,160,195z M218.63,455   H160c-71.682,0-130-58.318-130-130c0-50.61,29.074-94.554,71.394-116.019c20.936,25.922,52.466,41.149,86.105,41.149   c34.552,0,66.264-15.653,87.143-42.43c43.722,20.963,73.987,65.662,73.987,117.3C348.63,396.682,290.312,455,218.63,455z    M378.542,319.943C375.861,234.051,305.161,165,218.63,165H160c-2.133,0-4.253,0.055-6.366,0.138   c-1.519-36.243,11.929-71.006,37.985-97.062C216.172,43.522,248.818,30,283.542,30c14.006,0,27.672,2.203,40.607,6.439   c-3.554,33.161,7.973,66.259,31.779,90.065c21.118,21.118,49.003,32.476,77.94,32.476c4.568,0,9.162-0.289,13.761-0.862   c4.843,13.736,7.371,28.343,7.371,43.339c0,34.724-13.522,67.37-38.077,91.924C405.784,304.521,392.75,313.511,378.542,319.943z" id="svg_2" fill="#e84141" fill-opacity="1"/>
</g><g id="svg_3">
</g><g id="svg_4">
</g><g id="svg_5">
</g><g id="svg_6">
</g><g id="svg_7">
</g><g id="svg_8">
</g><g id="svg_9">
</g><g id="svg_10">
</g><g id="svg_11">
</g><g id="svg_12">
</g><g id="svg_13">
</g><g id="svg_14">
</g><g id="svg_15">
</g><g id="svg_16">
</g><g id="svg_17">
</g></g></svg>