<svg version="1.1" xmlns="http://www.w3.org/2000/svg" xmlns:xlink="http://www.w3.org/1999/xlink" style="" xml:space="preserve" width="485" height="485"><rect id="backgroundrect" width="100%" height="100%" x="0" y="0" fill="none" stroke="none"/>
















<g class="currentLayer" style=""><title>Layer 1</title><g id="svg_1" class="selected" fill="#e84141" fill-opacity="1">
	<path d="M413.974,104.448C368.171,58.646,307.274,33.421,242.5,33.421S116.829,58.646,71.026,104.448   C25.225,150.25,0,211.147,0,275.921v7.818l144.06,100.657v67.182H340.94v-67.182L485,283.739v-7.818   C485,211.147,459.775,150.25,413.974,104.448z M257.5,361.579V63.955c47.741,3.345,91.185,22.523,125.094,52.312L274.439,361.579   H257.5z M210.561,361.579L102.406,116.267C136.315,86.478,179.759,67.3,227.5,63.955v297.624H210.561z M30.139,268.2   c1.755-48.94,20.15-93.705,49.67-128.822l97.965,222.2h-13.993L30.139,268.2z M174.06,421.579v-30H310.94v30H174.06z    M321.219,361.579h-13.993l97.965-222.2c29.521,35.117,47.916,79.882,49.67,128.822L321.219,361.579z" id="svg_2" fill="#e84141" fill-opacity="1"/>
</g><g id="svg_3">
</g><g id="svg_4">
</g><g id="svg_5">
</g><g id="svg_6">
</g><g id="svg_7">
</g><g id="svg_8">
</g><g id="svg_9">
</g><g id="svg_10">
</g><g id="svg_11">
</g><g id="svg_12">
</g><g id="svg_13">
</g><g id="svg_14">
</g><g id="svg_15">
</g><g id="svg_16">
</g><g id="svg_17">
</g></g></svg>