<?xml version="1.0" encoding="iso-8859-1"?>
<!-- Generator: Adobe Illustrator 19.0.0, SVG Export Plug-In . SVG Version: 6.00 Build 0)  -->
<svg version="1.1" id="Capa_1" xmlns="http://www.w3.org/2000/svg" xmlns:xlink="http://www.w3.org/1999/xlink" x="0px" y="0px"
	 viewBox="0 0 485 485" style="enable-background:new 0 0 485 485;" xml:space="preserve">
<g>
	<path d="M413.974,104.448C368.171,58.646,307.274,33.421,242.5,33.421S116.829,58.646,71.026,104.448
		C25.225,150.25,0,211.147,0,275.921v7.818l144.06,100.657v67.182H340.94v-67.182L485,283.739v-7.818
		C485,211.147,459.775,150.25,413.974,104.448z M257.5,361.579V63.955c47.741,3.345,91.185,22.523,125.094,52.312L274.439,361.579
		H257.5z M210.561,361.579L102.406,116.267C136.315,86.478,179.759,67.3,227.5,63.955v297.624H210.561z M30.139,268.2
		c1.755-48.94,20.15-93.705,49.67-128.822l97.965,222.2h-13.993L30.139,268.2z M174.06,421.579v-30H310.94v30H174.06z
		 M321.219,361.579h-13.993l97.965-222.2c29.521,35.117,47.916,79.882,49.67,128.822L321.219,361.579z"/>
</g>
<g>
</g>
<g>
</g>
<g>
</g>
<g>
</g>
<g>
</g>
<g>
</g>
<g>
</g>
<g>
</g>
<g>
</g>
<g>
</g>
<g>
</g>
<g>
</g>
<g>
</g>
<g>
</g>
<g>
</g>
</svg>
