<svg version="1.1" xmlns="http://www.w3.org/2000/svg" xmlns:xlink="http://www.w3.org/1999/xlink" style="enable-background:new 0 0 485 485;" xml:space="preserve" width="485" height="485"><rect id="backgroundrect" width="100%" height="100%" x="0" y="0" fill="none" stroke="none"/>
















<g class="currentLayer" style=""><title>Layer 1</title><g id="svg_1" class="selected" fill="#e84141" fill-opacity="1">
	<path d="M407.843,131.944V90h10V0H67.157v90h10v41.944c-24.378,32.72-37.235,71.539-37.235,112.604   c0,7.918,0.498,15.901,1.479,23.728L68.594,485h347.813l27.192-216.724c0.981-7.827,1.479-15.81,1.479-23.728   C445.078,203.483,432.221,164.665,407.843,131.944z M97.157,30h290.686v30H97.157V30z M103.938,146.314l3.22-4.085V90h270.686   v52.23l3.22,4.085c12.694,16.105,21.968,34.078,27.599,53.234H76.339C81.97,180.392,91.244,162.419,103.938,146.314z M95.064,455   l-5.019-40h304.909l-5.019,40H95.064z M413.832,264.541L398.718,385H86.282L71.168,264.541c-0.827-6.593-1.246-13.319-1.246-19.993   c0-5.044,0.239-10.047,0.697-15h343.763c0.458,4.953,0.697,9.956,0.697,15C415.078,251.222,414.659,257.949,413.832,264.541z" id="svg_2" fill="#e84141" fill-opacity="1"/>
	<path d="M185.516,303.274c-11.028,0-20,8.972-20,20s8.972,20,20,20s20-8.972,20-20S196.544,303.274,185.516,303.274z" id="svg_3" fill="#e84141" fill-opacity="1"/>
	<path d="M293.516,303.274c-11.028,0-20,8.972-20,20s8.972,20,20,20s20-8.972,20-20S304.544,303.274,293.516,303.274z" id="svg_4" fill="#e84141" fill-opacity="1"/>
	<path d="M239.516,271.274c-11.028,0-20,8.972-20,20s8.972,20,20,20s20-8.972,20-20S250.544,271.274,239.516,271.274z" id="svg_5" fill="#e84141" fill-opacity="1"/>
</g><g id="svg_6">
</g><g id="svg_7">
</g><g id="svg_8">
</g><g id="svg_9">
</g><g id="svg_10">
</g><g id="svg_11">
</g><g id="svg_12">
</g><g id="svg_13">
</g><g id="svg_14">
</g><g id="svg_15">
</g><g id="svg_16">
</g><g id="svg_17">
</g><g id="svg_18">
</g><g id="svg_19">
</g><g id="svg_20">
</g></g></svg>