<svg version="1.1" xmlns="http://www.w3.org/2000/svg" xmlns:xlink="http://www.w3.org/1999/xlink" style="enable-background:new 0 0 485 485;" xml:space="preserve" width="485" height="485"><rect id="backgroundrect" width="100%" height="100%" x="0" y="0" fill="none" stroke="none"/>
















<g class="currentLayer" style=""><title>Layer 1</title><g id="svg_1" class="selected" fill="#ffffff" fill-opacity="1">
	<path d="M242.487,0C143.618,0,56.89,126.999,56.89,271.777c0,55.311,19.312,108.222,54.379,148.987   c17.126,19.91,36.958,35.62,58.944,46.695C193.319,479.098,217.631,485,242.474,485c24.842,0,49.157-5.901,72.268-17.538   c21.991-11.073,41.829-26.782,58.961-46.69c35.085-40.767,54.407-93.681,54.407-148.995C428.11,126.999,341.371,0,242.487,0z    M242.474,455C158.139,455,86.89,371.094,86.89,271.777C86.89,145.24,161.053,30,242.487,30   c81.448,0,155.623,115.24,155.623,241.777C398.11,371.094,326.838,455,242.474,455z" id="svg_2" fill="#ffffff" fill-opacity="1"/>
	<path d="M187.079,355.551c-19.186-22.303-30.189-52.838-30.189-83.773h-30c0,38.008,13.648,75.673,37.446,103.337   C186.46,400.835,214.211,415,242.474,415v-30C223.088,385,203.415,374.542,187.079,355.551z" id="svg_3" fill="#ffffff" fill-opacity="1"/>
</g><g id="svg_4">
</g><g id="svg_5">
</g><g id="svg_6">
</g><g id="svg_7">
</g><g id="svg_8">
</g><g id="svg_9">
</g><g id="svg_10">
</g><g id="svg_11">
</g><g id="svg_12">
</g><g id="svg_13">
</g><g id="svg_14">
</g><g id="svg_15">
</g><g id="svg_16">
</g><g id="svg_17">
</g><g id="svg_18">
</g></g></svg>