<?xml version="1.0" encoding="iso-8859-1"?>
<!-- Generator: Adobe Illustrator 19.0.0, SVG Export Plug-In . SVG Version: 6.00 Build 0)  -->
<svg version="1.1" id="Capa_1" xmlns="http://www.w3.org/2000/svg" xmlns:xlink="http://www.w3.org/1999/xlink" x="0px" y="0px"
	 viewBox="0 0 485 485" style="enable-background:new 0 0 485 485;" xml:space="preserve">
<g>
	<path d="M242.487,0C143.618,0,56.89,126.999,56.89,271.777c0,55.311,19.312,108.222,54.379,148.987
		c17.126,19.91,36.958,35.62,58.944,46.695C193.319,479.098,217.631,485,242.474,485c24.842,0,49.157-5.901,72.268-17.538
		c21.991-11.073,41.829-26.782,58.961-46.69c35.085-40.767,54.407-93.681,54.407-148.995C428.11,126.999,341.371,0,242.487,0z
		 M242.474,455C158.139,455,86.89,371.094,86.89,271.777C86.89,145.24,161.053,30,242.487,30
		c81.448,0,155.623,115.24,155.623,241.777C398.11,371.094,326.838,455,242.474,455z"/>
	<path d="M187.079,355.551c-19.186-22.303-30.189-52.838-30.189-83.773h-30c0,38.008,13.648,75.673,37.446,103.337
		C186.46,400.835,214.211,415,242.474,415v-30C223.088,385,203.415,374.542,187.079,355.551z"/>
</g>
<g>
</g>
<g>
</g>
<g>
</g>
<g>
</g>
<g>
</g>
<g>
</g>
<g>
</g>
<g>
</g>
<g>
</g>
<g>
</g>
<g>
</g>
<g>
</g>
<g>
</g>
<g>
</g>
<g>
</g>
</svg>
