<svg version="1.1" xmlns="http://www.w3.org/2000/svg" xmlns:xlink="http://www.w3.org/1999/xlink" style="" xml:space="preserve" width="491.213" height="491.213"><rect id="backgroundrect" width="100%" height="100%" x="0" y="0" fill="none" stroke="none"/>
















<g class="currentLayer" style=""><title>Layer 1</title><g id="svg_1" class="selected" fill="#e84141" fill-opacity="1">
	<path d="M491.193,18.096l-0.152-14.439L476.606,3.26c-3.303-0.091-6.653-0.137-9.958-0.137   c-78.421,0-153.368,24.978-215.642,71.135c-14.639-11.282-32.475-17.413-51.263-17.413c-22.494,0-43.641,8.76-59.546,24.665   L129.59,92.116l50.896,50.896c-20.71,26.519-37.533,55.593-50.202,86.88c-14.514,35.841-23.041,73.157-25.481,111.269   c-10.751-4.857-22.499-7.435-34.649-7.435c-22.493,0-43.641,8.76-59.546,24.665L0,368.998L119.093,488.09l10.607-10.607   c25.325-25.326,31.095-62.895,17.352-93.823c39.872-2.022,78.895-10.646,116.239-25.731c30.18-12.192,58.343-28.263,84.155-47.958   l54.886,54.887l10.606-10.606c15.906-15.906,24.666-37.053,24.666-59.546c0-20.275-7.138-39.442-20.188-54.674   c19.386-25.41,35.254-53.141,47.351-82.912C482.808,112.719,491.699,65.944,491.193,18.096z M173.495,93.595   c7.941-4.407,16.915-6.75,26.248-6.75c9.587,0,18.787,2.486,26.888,7.13c-4.794,4.229-9.503,8.585-14.107,13.088   c-4.308,4.247-8.491,8.585-12.561,13.001L173.495,93.595z M117.6,444.171l-73.695-73.695c7.942-4.407,16.916-6.75,26.248-6.75   c14.48,0,28.094,5.639,38.333,15.878C125.945,397.063,128.983,423.565,117.6,444.171z M134.205,354.089   c2.528-84.994,37.488-164.647,99.338-225.623c18.286-17.887,38.27-33.416,59.554-46.474c9.557,27.477,25.245,52.544,46.03,73.328   c19.848,19.849,43.693,35.096,69.778,44.752c-13.381,20.738-29.19,40.192-47.327,58.006   C299.9,318.725,219.341,352.694,134.205,354.089z M407.604,294.705c0,9.333-2.344,18.307-6.751,26.248l-30.225-30.225   c4.059-3.656,8.058-7.398,11.978-11.252c5.248-5.155,10.299-10.453,15.194-15.861C404.162,272.663,407.604,283.417,407.604,294.705   z M424.259,173.676c-23.968-8.004-45.889-21.537-63.919-39.568c-18.799-18.799-32.665-41.733-40.524-66.863   C363.4,45.748,411.399,33.993,461.028,33.17C459.38,82.797,446.747,130.505,424.259,173.676z" id="svg_2" fill="#e84141" fill-opacity="1"/>
</g><g id="svg_3">
</g><g id="svg_4">
</g><g id="svg_5">
</g><g id="svg_6">
</g><g id="svg_7">
</g><g id="svg_8">
</g><g id="svg_9">
</g><g id="svg_10">
</g><g id="svg_11">
</g><g id="svg_12">
</g><g id="svg_13">
</g><g id="svg_14">
</g><g id="svg_15">
</g><g id="svg_16">
</g><g id="svg_17">
</g></g></svg>