<?xml version="1.0" encoding="iso-8859-1"?>
<!-- Generator: Adobe Illustrator 19.0.0, SVG Export Plug-In . SVG Version: 6.00 Build 0)  -->
<svg version="1.1" id="Capa_1" xmlns="http://www.w3.org/2000/svg" xmlns:xlink="http://www.w3.org/1999/xlink" x="0px" y="0px"
	 viewBox="0 0 485.009 485.009" style="enable-background:new 0 0 485.009 485.009;" xml:space="preserve">
<g>
	<path d="M350.067,72.441c-16.693,0-32.389,6.501-44.193,18.306c-24.369,24.369-24.369,64.02,0,88.388
		c11.805,11.804,27.5,18.306,44.193,18.306c16.694,0,32.39-6.501,44.194-18.306c11.806-11.805,18.307-27.5,18.307-44.194
		s-6.501-32.39-18.307-44.194C382.457,78.942,366.761,72.441,350.067,72.441z M373.048,157.922
		c-6.139,6.138-14.3,9.519-22.981,9.519c-8.681,0-16.842-3.381-22.98-9.519c-12.672-12.672-12.672-33.291,0-45.962
		c6.139-6.138,14.3-9.519,22.98-9.519c8.682,0,16.843,3.381,22.981,9.519c6.139,6.139,9.52,14.3,9.52,22.981
		S379.187,151.783,373.048,157.922z"/>
	<path d="M242.504,180.004c-16.694,0-32.39,6.501-44.194,18.306c-24.369,24.369-24.369,64.02,0,88.388
		c11.805,11.804,27.5,18.306,44.194,18.306s32.39-6.501,44.194-18.306c24.369-24.369,24.369-64.02,0-88.388
		C274.894,186.506,259.199,180.004,242.504,180.004z M265.486,265.485c-6.139,6.138-14.3,9.519-22.981,9.519
		s-16.843-3.381-22.981-9.519c-12.672-12.672-12.672-33.291,0-45.962c6.139-6.138,14.3-9.519,22.981-9.519
		s16.843,3.381,22.981,9.519C278.158,232.195,278.158,252.814,265.486,265.485z"/>
	<path d="M464.982,26.028l-2.115-3.885l-3.886-2.115C434.918,6.925,407.644,0,380.105,0c-44.068,0-85.498,17.161-116.658,48.321
		c-18.776,18.776-32.724,41.761-40.665,66.897c-25.137,7.942-48.122,21.889-66.897,40.666
		c-18.776,18.776-32.725,41.761-40.666,66.898c-25.136,7.942-48.121,21.889-66.897,40.665
		c-25.692,25.692-41.872,58.254-46.789,94.164c-4.755,34.731,1.813,70.732,18.495,101.37l2.115,3.885l3.886,2.115
		c24.061,13.101,51.335,20.026,78.875,20.027c0.003,0,0.005,0,0.007,0c44.064,0,85.492-17.161,116.652-48.321
		c18.776-18.776,32.724-41.761,40.665-66.897c25.137-7.942,48.122-21.889,66.897-40.666c18.776-18.776,32.725-41.761,40.666-66.898
		c25.136-7.942,48.121-21.889,66.897-40.665c25.692-25.692,41.872-58.254,46.789-94.164
		C488.232,92.667,481.664,56.666,464.982,26.028z M415.475,200.348c-17.056,17.056-38.342,29.239-61.557,35.233l-8.563,2.211
		l-2.211,8.563c-5.994,23.215-18.178,44.501-35.233,61.557s-38.341,29.239-61.557,35.232l-8.563,2.211l-2.211,8.563
		c-5.994,23.215-18.178,44.501-35.232,61.557c-25.495,25.495-59.392,39.535-95.445,39.534c-21.052-0.001-41.902-4.938-60.59-14.314
		c-25.841-51.494-15.763-115.052,25.22-156.034c17.056-17.056,38.342-29.239,61.557-35.233l8.563-2.211l2.211-8.563
		c5.994-23.215,18.178-44.501,35.233-61.557s38.341-29.239,61.557-35.232l8.563-2.211l2.211-8.563
		c5.994-23.215,18.178-44.501,35.232-61.557C310.154,44.04,344.05,30,380.105,30c21.051,0,41.901,4.937,60.59,14.314
		C466.536,95.808,456.458,159.366,415.475,200.348z"/>
	<path d="M134.942,287.568c-16.694,0-32.39,6.501-44.194,18.306c-11.806,11.805-18.307,27.5-18.307,44.194
		s6.501,32.39,18.307,44.194c11.805,11.804,27.5,18.306,44.194,18.306c16.693,0,32.389-6.501,44.193-18.306
		c24.369-24.369,24.369-64.02,0-88.388C167.331,294.069,151.635,287.568,134.942,287.568z M157.922,373.049
		c-6.139,6.138-14.3,9.519-22.98,9.519c-8.682,0-16.843-3.381-22.981-9.519c-6.139-6.139-9.52-14.3-9.52-22.981
		s3.381-16.842,9.52-22.981c6.139-6.138,14.3-9.519,22.981-9.519c8.681,0,16.842,3.381,22.98,9.519
		C170.594,339.758,170.594,360.377,157.922,373.049z"/>
</g>
<g>
</g>
<g>
</g>
<g>
</g>
<g>
</g>
<g>
</g>
<g>
</g>
<g>
</g>
<g>
</g>
<g>
</g>
<g>
</g>
<g>
</g>
<g>
</g>
<g>
</g>
<g>
</g>
<g>
</g>
</svg>
