<svg height="512pt" viewBox="0 -10 512.00009 512" width="512pt" xmlns="http://www.w3.org/2000/svg"><path d="m503.335938 171.871094c-17.113282-62.890625-57.691407-115.355469-114.261719-147.730469-13.910157-7.957031-31.703125-3.117187-39.660157 10.792969-7.960937 13.910156-3.121093 31.703125 10.789063 39.664062 43.09375 24.660156 74.007813 64.625 87.039063 112.535156 1.171874 4.292969 2.199218 8.675782 3.058593 13.019532.636719 3.234375 1.199219 6.527344 1.667969 9.796875.789062 5.496093 5.882812 9.3125 11.375 8.523437 5.496094-.789062 9.3125-5.882812 8.523438-11.375-.515626-3.617187-1.140626-7.269531-1.847657-10.847656-.949219-4.804688-2.085937-9.644531-3.375-14.394531-14.445312-53.089844-48.699219-97.378907-96.457031-124.707031-4.285156-2.453126-5.777344-7.941407-3.324219-12.230469 2.453125-4.289063 7.9375-5.78125 12.226563-3.328125 51.910156 29.707031 89.144531 77.847656 104.847656 135.558594 15.699219 57.710937 7.988281 118.082031-21.71875 169.992187-19.480469 34.039063-47.59375 62.433594-81.300781 82.113281-3.417969 1.996094-5.347657 5.816406-4.925781 9.753906.421874 3.9375 3.117187 7.257813 6.878906 8.484376l24.046875 7.835937c4.695312 1.53125 7.273437 6.597656 5.742187 11.296875-1.53125 4.695312-6.601562 7.273438-11.296875 5.742188l-70.769531-23.058594c-.085938-.03125-.171875-.0625-.234375-.085938-.03125-.011718-.066406-.019531-.097656-.03125-.09375-.035156-.1875-.074218-.285157-.109375l-.972656-.429687c-.113281-.0625-.222656-.128906-.351562-.203125l-.253906-.144531c-.128907-.082032-.253907-.171876-.367188-.253907l-.246094-.167969c-.105468-.082031-.210937-.171874-.328125-.269531l-.210937-.171875c-.101563-.09375-.203125-.191406-.289063-.277344l-.210937-.195312c-.089844-.101562-.179688-.203125-.269532-.304688l-.191406-.210937c-.078125-.097656-.152344-.199219-.238281-.3125l-.140625-.183594-.007812-.007812c-.0625-.085938-.121094-.179688-.21875-.328125l-.136719-.210938-1.101563-2.671875c-.035156-.15625-.0625-.316406-.09375-.492187-.015625-.082032-.027344-.164063-.046875-.246094-.0625-.433594-.09375-.859375-.09375-1.273438 0-.515624.058594-1.085937.183594-1.710937 0 0 .015625-.097656.015625-.101563.019531-.09375.035156-.1875.054688-.269531.023437-.085937.050781-.175781.078124-.277343.050782-.179688.097657-.359376.164063-.550782.019531-.0625.039063-.128906.0625-.195312l24.285156-70.097656c.78125-2.261719 2.398438-4.082032 4.550781-5.128907 2.15625-1.042969 4.585938-1.1875 6.847657-.402343 2.261719.78125 4.082031 2.398437 5.128906 4.550781 1.042969 2.15625 1.1875 4.585937.402344 6.847656l-10.132813 29.257813c-1.371094 3.957031-.144531 8.351562 3.082032 11.027343 3.226562 2.675781 7.773437 3.070313 11.410156.984375 31.707031-18.148437 58.101562-44.574218 76.324218-76.417968 8.957032-15.65625 15.832032-32.332032 20.421876-49.5625 1.429687-5.367188-1.761719-10.871094-7.125-12.300782-5.363282-1.433594-10.871094 1.757813-12.300782 7.125-4.144531 15.546875-10.351562 30.605469-18.445312 44.753906-11.5 20.089844-26.59375 37.785157-44.410156 52.210938l.175781-.496094c2.539062-7.335937 2.070312-15.222656-1.320313-22.207031s-9.296875-12.230469-16.632812-14.773437c-7.332032-2.539063-15.21875-2.074219-22.203125 1.316406s-12.230469 9.300781-14.773438 16.636718l-24.363281 70.328126c-.027344.078124-.054688.167968-.082031.253906-.164063.492187-.308594.984375-.4375 1.453125-.066407.214843-.125.433593-.1875.667969-.117188.476562-.21875.960937-.324219 1.519531-.371094 1.878906-.554688 3.75-.554688 5.558593 0 1.527344.125 3.082032.367188 4.59375.03125.179688.0625.355469.101562.535157.097657.558593.207032 1.117187.34375 1.667969.0625.273437.136719.542968.234376.875l.035156.125c.101562.378906.207031.757812.332031 1.132812.101563.316406.210937.625.324219.929688l.085937.230468c.113281.3125.230469.625.351563.921875.128906.316407.269531.625.410156.9375l.121094.261719c.125.277344.253906.554688.398437.84375s.296875.570312.457031.851562l.117188.21875c.164062.296876.332031.59375.511719.898438.148437.242188.304687.480469.460937.71875l.097656.15625c.222657.335938.441407.671875.679688 1.003906.152344.210938.308594.421875.46875.628906l.050781.066407c.28125.371093.566407.738281.867188 1.089843.148437.179688.300781.351563.503906.578126.332031.375.664063.742187 1.015625 1.101562.148438.152344.300781.296875.507812.492188.371094.359374.742188.714843 1.128907 1.050781.164062.140625.332031.28125.535156.445312.398437.332031.804687.65625 1.21875.964844.183594.140625.375.273437.640625.457031.398438.28125.804688.558594 1.21875.816406.222656.140626.449219.273438.679688.40625l.144531.085938c.375.21875.75.433594 1.148437.644531.273438.144531.554688.28125.835938.414063l.246094.117187c.316406.152344.636718.300781.984374.449219.332032.140625.667969.273438 1.003907.402344l.082031.03125c.277344.109375.554688.21875.863281.328125.066407.019531.140625.046875.214844.070312.085937.027344.175781.058594.273437.089844l70.964844 23.125c2.980469.972656 6.007813 1.433594 8.984375 1.433594 12.242188 0 23.660157-7.808594 27.65625-20.066407 4.964844-15.238281-3.394531-31.671874-18.628906-36.636718l-3.96875-1.292969c28.726563-20.410156 52.855469-46.980469 70.488281-77.792969 32.382813-56.578125 40.785156-122.367187 23.675782-185.257812zm0 0"/><path d="m151.792969 418.320312c-43.097657-24.660156-74.007813-64.625-87.042969-112.535156s-6.632812-98.03125 18.03125-141.125c11.496094-20.085937 26.589844-37.785156 44.40625-52.210937l-.171875.5c-1.066406 3.078125-1.609375 6.277343-1.609375 9.511719 0 12.375 7.859375 23.414062 19.558594 27.464843 15.140625 5.242188 31.730468-2.808593 36.976562-17.949219l24.324219-70.214843c.042969-.117188.082031-.246094.125-.375.261719-.785157.492187-1.585938.679687-2.378907.0625-.242187.109376-.484374.160157-.734374.128906-.609376.242187-1.214844.332031-1.824219.054688-.375.101562-.75.144531-1.128907.050781-.480468.089844-.960937.117188-1.433593.019531-.347657.039062-.695313.046875-1.054688.011718-.195312.015625-.398437.015625-.640625 0-.316406-.011719-.628906-.03125-.960937l-.003907-.148438c-.011718-.367187-.023437-.738281-.050781-1.097656-.054687-.730469-.144531-1.480469-.257812-2.230469-.042969-.28125-.097657-.558594-.148438-.835937l-.015625-.066407c-.113281-.621093-.246094-1.242187-.402344-1.855468-.066406-.257813-.140624-.511719-.214843-.769532l-.03125-.113281c-.160157-.546875-.328125-1.085937-.515625-1.609375-.105469-.296875-.214844-.589844-.324219-.871094-.210937-.542968-.441406-1.078124-.6875-1.609374 0-.003907-.046875-.101563-.046875-.105469-.097656-.21875-.199219-.433594-.3125-.664063-.292969-.589844-.617188-1.183594-.960938-1.769531-.085937-.160156-.179687-.316406-.277343-.480469-.417969-.679687-.875-1.355468-1.382813-2.046875-.171875-.234375-.355468-.464843-.535156-.691406l-.070312-.082031c-.324219-.414063-.652344-.816406-.996094-1.203125-.246094-.277344-.5-.550781-.765625-.835938-.335938-.351562-.679688-.691406-1.03125-1.023437l-.074219-.074219c-.25-.234375-.496094-.46875-.757812-.695313-.441407-.390624-.902344-.761718-1.378907-1.132812l-.097656-.074219c-.230469-.179687-.460937-.359375-.691406-.523437-.609375-.441406-1.253907-.867188-1.929688-1.277344-.234375-.144531-.472656-.277344-.710937-.410156l-.082032-.042969c-.519531-.292969-1.042968-.570313-1.59375-.835937-.277343-.136719-.5625-.269532-.851562-.398438-.527344-.234375-1.0625-.453125-1.613281-.660156-.230469-.097656-.464844-.1875-.699219-.265625-.070312-.027344-.152344-.054688-.234375-.078125-.089844-.035156-.183594-.066406-.28125-.097656l-70.964844-23.125c-15.238281-4.960938-31.675781 3.394531-36.640625 18.632812-2.40625 7.382812-1.792968 15.257812 1.726563 22.175781 3.519531 6.921875 9.523437 12.058594 16.902343 14.464844l3.964844 1.292969c-28.726562 20.410156-52.855468 46.980468-70.488281 77.792968-21.148437 36.960938-32.328125 78.742188-32.328125 120.824219 0 21.632813 2.914062 43.308594 8.660156 64.433594 17.109375 62.890625 57.6875 115.355469 114.261719 147.726563 4.453125 2.550781 9.390625 3.851562 14.386719 3.851562 2.558594 0 5.136718-.339844 7.675781-1.03125 7.492187-2.039062 13.742187-6.871094 17.597656-13.609375 7.957031-13.90625 3.117188-31.699219-10.789062-39.664063zm-6.660157 29.679688c-1.1875 2.078125-3.117187 3.566406-5.425781 4.195312-2.308593.628907-4.722656.320313-6.800781-.871093-51.910156-29.703125-89.148438-77.847657-104.847656-135.558594-5.277344-19.402344-7.953125-39.304687-7.953125-59.152344-.003907-38.585937 10.257812-76.914062 29.671875-110.835937 19.480468-34.042969 47.59375-62.4375 81.300781-82.113282 3.417969-1.996093 5.347656-5.816406 4.925781-9.753906s-3.117187-7.257812-6.882812-8.484375l-24.042969-7.835937c-2.277344-.742188-4.125-2.324219-5.210937-4.457032-1.085938-2.132812-1.273438-4.5625-.53125-6.835937 1.230468-3.78125 4.75-6.1875 8.523437-6.1875.917969 0 1.851563.144531 2.769531.441406l70.777344 23.0625c.082031.03125.167969.0625.242188.085938.085937.035156.175781.066406.261718.101562.191406.070313.378906.144531.5625.226563l.265625.121094c.164063.078124.320313.164062.496094.261718l.296875.167969c.179688.109375.351562.222656.480469.316406l.292969.226563c.140624.113281.285156.222656.402343.324218l.269531.257813c.113282.101563.21875.207031.316407.308594.078125.082031.160156.167969.242187.261719.105469.121093.207032.246093.304688.375l.222656.277343c.125.167969.230469.320313.320312.460938.042969.082031.089844.160156.136719.238281.113281.195312.222657.390625.324219.605469l.101562.214843c.074219.164063.148438.328126.21875.511719l.097657.257813c.058593.164062.105469.332031.15625.496094l.082031.277343c.046875.179688.082031.363281.125.589844l.046875.246094c.035156.226562.0625.457031.078125.621093l.027344.757813c-.003906.039063-.003906.078125-.003906.113281 0 .132813-.011719.261719-.019532.410156-.007812.144532-.019531.289063-.035156.433594-.011719.113282-.023438.226563-.042969.347656-.027343.195313-.066406.382813-.101562.542969l-.066407.335938c-.058593.234375-.128906.46875-.199218.667969-.027344.085937-.058594.175781-.085938.265624l-24.277344 70.078126c-1.617187 4.667968-6.730468 7.152343-11.402343 5.535156-3.605469-1.25-6.03125-4.652344-6.03125-8.464844 0-.992188.167969-1.980469.5-2.933594l10.136719-29.257812c1.371093-3.960938.140624-8.355469-3.085938-11.03125-3.222656-2.675782-7.773438-3.066406-11.40625-.984375-31.710938 18.152343-58.101562 44.574219-76.324219 76.417969-27.328125 47.757812-34.425781 103.296874-19.980469 156.386718 14.445313 53.089844 48.699219 97.378906 96.453126 124.707032 4.289062 2.453124 5.78125 7.9375 3.328124 12.226562zm0 0"/><path d="m259.011719 280.632812c32.726562 0 59.835937-9.4375 80.703125-28.125 38.09375-34.117187 40.921875-86.40625 41.023437-88.617187.136719-2.949219-1.03125-5.808594-3.191406-7.820313-2.160156-2.011718-5.09375-2.96875-8.023437-2.625-70.136719 8.25-102.1875 39.308594-116.722657 63.90625-9.746093 16.492188-13.105469 32.273438-14.230469 42.367188-14.585937-18.300781-41.449218-37.640625-90.757812-43.441406-2.929688-.347656-5.863281.617187-8.023438 2.628906-2.160156 2.011719-3.328124 4.871094-3.191406 7.816406.085938 1.859375 2.460938 45.816406 34.511719 74.519532 17.371094 15.558593 39.839844 23.496093 66.886719 23.695312v54.839844c0 5.554687 4.5 10.054687 10.050781 10.054687 5.554687 0 10.054687-4.5 10.054687-10.054687v-64.972656c.015626-.511719.035157-1.496094 0-2.882813v-31.300781c.300782 0 .609376.011718.910157.011718zm11.097656-53.050781c16.203125-27.421875 46.070313-44.992187 88.886719-52.320312-2.957032 15.617187-11.035156 42.867187-32.695313 62.269531-17.0625 15.28125-39.691406 22.996094-67.378906 22.996094-.066406 0-.128906 0-.191406 0 1.046875-7.972656 3.867187-20.238282 11.378906-32.945313zm-85.464844 58.796875c-16.453125-14.664062-23.289062-35.164062-26.085937-48.15625 62.726562 11.742188 76.023437 49.027344 78.773437 66.609375-21.59375-.320312-39.285156-6.507812-52.6875-18.453125zm0 0"/><path d="m457.554688 255.25c1.691406 1.097656 3.589843 1.625 5.46875 1.625 3.289062 0 6.511718-1.613281 8.4375-4.578125 3.023437-4.65625 1.703124-10.882813-2.953126-13.90625l-.277343-.179687c-4.65625-3.027344-10.882813-1.703126-13.90625 2.953124-3.023438 4.65625-1.703125 10.882813 2.953125 13.90625zm0 0"/></svg>