<?xml version="1.0"?>
<svg xmlns="http://www.w3.org/2000/svg" id="Layer_1" data-name="Layer 1" viewBox="0 0 128 128" width="512" height="512"><title>PESTICIDE</title><path d="M112.834,34.291V30.333a1.75,1.75,0,0,0-1.75-1.75h-5.667a1.75,1.75,0,0,0-1.75,1.75V34.25H95.959V29h2.958a1.75,1.75,0,0,0,1.75-1.75V20.333a1.75,1.75,0,0,0-1.75-1.75H70.251a1.75,1.75,0,0,0-1.75,1.75V27.25A1.75,1.75,0,0,0,70.251,29h2.958v5.25H56.744a5.331,5.331,0,0,0-5.325,5.325V90.5H44a1.75,1.75,0,0,0-1.75,1.75v3.594H36.245a2.091,2.091,0,0,1-2.088-2.089V49.867a9.077,9.077,0,0,0,3.927-7.47V34.583a9.076,9.076,0,0,0-3.927-7.469V21.626A11.389,11.389,0,0,0,22.78,10.25H12A1.75,1.75,0,0,0,10.25,12v6.313A1.75,1.75,0,0,0,12,20.063h9.519a2.828,2.828,0,0,1,2.825,2.825V26.8a9.077,9.077,0,0,0-4.427,7.785V42.4a9.079,9.079,0,0,0,4.427,7.785V95.806a9.862,9.862,0,0,0,9.851,9.851H42.25v3.594A1.75,1.75,0,0,0,44,111h7.419v1.425a5.331,5.331,0,0,0,5.325,5.325h55.681a5.331,5.331,0,0,0,5.325-5.325V39.575A5.315,5.315,0,0,0,112.834,34.291ZM54.919,50.563H114.25v50.625H54.919Zm0-3.5V44.25H114.25v2.813Zm0,57.625H114.25V107.5H54.919Zm52.249-72.6h2.167V34.25h-2.167ZM72,22.083H97.168V25.5H72ZM76.709,29h15.75v5.25H76.709ZM56.744,37.75h55.681a1.827,1.827,0,0,1,1.825,1.825V40.75H54.919V39.575A1.827,1.827,0,0,1,56.744,37.75ZM21.519,16.563H13.75V13.75h9.03a7.885,7.885,0,0,1,7.876,7.876v4.032a8.5,8.5,0,0,0-2.812-.076V22.888A6.332,6.332,0,0,0,21.519,16.563Zm1.9,18.021a5.583,5.583,0,0,1,11.167,0V42.4a5.583,5.583,0,1,1-11.167,0Zm10.778,67.573a6.357,6.357,0,0,1-6.351-6.351V51.4a8.5,8.5,0,0,0,2.813-.076V93.755a5.6,5.6,0,0,0,5.588,5.589H42.25v2.813ZM45.75,94h5.669v13.5H45.75Zm66.675,20.25H56.744a1.827,1.827,0,0,1-1.825-1.825V111H114.25v1.425A1.827,1.827,0,0,1,112.425,114.25Z"/><path d="M83.889,92.654A16.779,16.779,0,1,0,67.109,75.875,16.8,16.8,0,0,0,83.889,92.654Zm0-30.059A13.279,13.279,0,1,1,70.609,75.875,13.294,13.294,0,0,1,83.889,62.6Z"/><path d="M77.937,82.049a1.749,1.749,0,0,0,2.475,0l3.477-3.477,3.477,3.477a1.75,1.75,0,0,0,2.475-2.475L86.363,76.1,89.84,72.62a1.75,1.75,0,0,0-2.475-2.475l-3.477,3.477-3.477-3.477a1.75,1.75,0,0,0-2.475,2.475L81.414,76.1l-3.477,3.477A1.749,1.749,0,0,0,77.937,82.049Z"/></svg>
